<mxfile host="app.diagrams.net" modified="2021-07-19T16:19:51.448Z" agent="5.0 (Macintosh; Intel Mac OS X 10_13_6) AppleWebKit/537.36 (KHTML, like Gecko) Chrome/91.0.4472.106 YaBrowser/21.6.0.1108 Yowser/2.5 Safari/537.36" etag="hq-XLNh8oUbouBM6BKM0" version="14.9.0" type="github">
  <diagram id="C5RBs43oDa-KdzZeNtuy" name="Page-1">
    <mxGraphModel dx="2357" dy="616" grid="1" gridSize="10" guides="1" tooltips="1" connect="1" arrows="1" fold="1" page="1" pageScale="1" pageWidth="1169" pageHeight="827" math="0" shadow="0">
      <root>
        <mxCell id="WIyWlLk6GJQsqaUBKTNV-0" />
        <mxCell id="WIyWlLk6GJQsqaUBKTNV-1" parent="WIyWlLk6GJQsqaUBKTNV-0" />
        <mxCell id="xblVIAik-VGrjhrXgYrc-5" value="LearningState" style="swimlane;fontStyle=0;childLayout=stackLayout;horizontal=1;startSize=26;horizontalStack=0;resizeParent=1;resizeParentMax=0;resizeLast=0;collapsible=1;marginBottom=0;" parent="WIyWlLk6GJQsqaUBKTNV-1" vertex="1">
          <mxGeometry x="940" y="40" width="220" height="260" as="geometry" />
        </mxCell>
        <mxCell id="xblVIAik-VGrjhrXgYrc-15" value="mapTopicsProgress = null" style="text;strokeColor=none;fillColor=none;align=left;verticalAlign=top;spacingLeft=4;spacingRight=4;overflow=hidden;rotatable=0;points=[[0,0.5],[1,0.5]];portConstraint=eastwest;fontColor=#000000;" parent="xblVIAik-VGrjhrXgYrc-5" vertex="1">
          <mxGeometry y="26" width="220" height="26" as="geometry" />
        </mxCell>
        <mxCell id="xblVIAik-VGrjhrXgYrc-6" value="topicId = null" style="text;strokeColor=none;fillColor=none;align=left;verticalAlign=top;spacingLeft=4;spacingRight=4;overflow=hidden;rotatable=0;points=[[0,0.5],[1,0.5]];portConstraint=eastwest;" parent="xblVIAik-VGrjhrXgYrc-5" vertex="1">
          <mxGeometry y="52" width="220" height="26" as="geometry" />
        </mxCell>
        <mxCell id="xblVIAik-VGrjhrXgYrc-9" value="numberOfCardsInTopic = null" style="text;strokeColor=none;fillColor=none;align=left;verticalAlign=top;spacingLeft=4;spacingRight=4;overflow=hidden;rotatable=0;points=[[0,0.5],[1,0.5]];portConstraint=eastwest;" parent="xblVIAik-VGrjhrXgYrc-5" vertex="1">
          <mxGeometry y="78" width="220" height="26" as="geometry" />
        </mxCell>
        <mxCell id="xblVIAik-VGrjhrXgYrc-10" value="listId = null" style="text;strokeColor=none;fillColor=none;align=left;verticalAlign=top;spacingLeft=4;spacingRight=4;overflow=hidden;rotatable=0;points=[[0,0.5],[1,0.5]];portConstraint=eastwest;fontColor=#CCCCCC;" parent="xblVIAik-VGrjhrXgYrc-5" vertex="1">
          <mxGeometry y="104" width="220" height="26" as="geometry" />
        </mxCell>
        <mxCell id="xblVIAik-VGrjhrXgYrc-7" value="allCards = null" style="text;strokeColor=none;fillColor=none;align=left;verticalAlign=top;spacingLeft=4;spacingRight=4;overflow=hidden;rotatable=0;points=[[0,0.5],[1,0.5]];portConstraint=eastwest;" parent="xblVIAik-VGrjhrXgYrc-5" vertex="1">
          <mxGeometry y="130" width="220" height="26" as="geometry" />
        </mxCell>
        <mxCell id="xblVIAik-VGrjhrXgYrc-8" value="listLearnedCardsIds = null" style="text;strokeColor=none;fillColor=none;align=left;verticalAlign=top;spacingLeft=4;spacingRight=4;overflow=hidden;rotatable=0;points=[[0,0.5],[1,0.5]];portConstraint=eastwest;" parent="xblVIAik-VGrjhrXgYrc-5" vertex="1">
          <mxGeometry y="156" width="220" height="26" as="geometry" />
        </mxCell>
        <mxCell id="xblVIAik-VGrjhrXgYrc-12" value="cardsForTraining = null" style="text;strokeColor=none;fillColor=none;align=left;verticalAlign=top;spacingLeft=4;spacingRight=4;overflow=hidden;rotatable=0;points=[[0,0.5],[1,0.5]];portConstraint=eastwest;" parent="xblVIAik-VGrjhrXgYrc-5" vertex="1">
          <mxGeometry y="182" width="220" height="26" as="geometry" />
        </mxCell>
        <mxCell id="xblVIAik-VGrjhrXgYrc-13" value="cardId = null" style="text;strokeColor=none;fillColor=none;align=left;verticalAlign=top;spacingLeft=4;spacingRight=4;overflow=hidden;rotatable=0;points=[[0,0.5],[1,0.5]];portConstraint=eastwest;" parent="xblVIAik-VGrjhrXgYrc-5" vertex="1">
          <mxGeometry y="208" width="220" height="26" as="geometry" />
        </mxCell>
        <mxCell id="xblVIAik-VGrjhrXgYrc-14" value="trainingProgress = 1" style="text;strokeColor=none;fillColor=none;align=left;verticalAlign=top;spacingLeft=4;spacingRight=4;overflow=hidden;rotatable=0;points=[[0,0.5],[1,0.5]];portConstraint=eastwest;" parent="xblVIAik-VGrjhrXgYrc-5" vertex="1">
          <mxGeometry y="234" width="220" height="26" as="geometry" />
        </mxCell>
        <mxCell id="0kCGySsH5AtkTIRb7MEI-54" style="edgeStyle=orthogonalEdgeStyle;rounded=0;orthogonalLoop=1;jettySize=auto;html=1;exitX=0.5;exitY=1;exitDx=0;exitDy=0;entryX=0.5;entryY=0;entryDx=0;entryDy=0;fontColor=#CCCCCC;strokeWidth=1;strokeColor=#007FFF;" edge="1" parent="WIyWlLk6GJQsqaUBKTNV-1" source="0kCGySsH5AtkTIRb7MEI-0" target="0kCGySsH5AtkTIRb7MEI-3">
          <mxGeometry relative="1" as="geometry" />
        </mxCell>
        <mxCell id="0kCGySsH5AtkTIRb7MEI-56" style="edgeStyle=orthogonalEdgeStyle;rounded=0;orthogonalLoop=1;jettySize=auto;html=1;exitX=0.75;exitY=1;exitDx=0;exitDy=0;entryX=1;entryY=0.5;entryDx=0;entryDy=0;fontColor=#CCCCCC;strokeWidth=1;strokeColor=#007FFF;" edge="1" parent="WIyWlLk6GJQsqaUBKTNV-1" source="0kCGySsH5AtkTIRb7MEI-0" target="0kCGySsH5AtkTIRb7MEI-4">
          <mxGeometry relative="1" as="geometry">
            <Array as="points">
              <mxPoint x="623" y="331" />
              <mxPoint x="623" y="390" />
            </Array>
          </mxGeometry>
        </mxCell>
        <mxCell id="0kCGySsH5AtkTIRb7MEI-0" value="Стартовая страница" style="rounded=1;whiteSpace=wrap;html=1;arcSize=50;fillColor=#dae8fc;strokeColor=#6c8ebf;" vertex="1" parent="WIyWlLk6GJQsqaUBKTNV-1">
          <mxGeometry x="375" y="260" width="330" height="22" as="geometry" />
        </mxCell>
        <mxCell id="0kCGySsH5AtkTIRb7MEI-55" style="edgeStyle=orthogonalEdgeStyle;rounded=0;orthogonalLoop=1;jettySize=auto;html=1;entryX=0.5;entryY=0;entryDx=0;entryDy=0;fontColor=#CCCCCC;strokeWidth=1;strokeColor=#007FFF;" edge="1" parent="WIyWlLk6GJQsqaUBKTNV-1" source="0kCGySsH5AtkTIRb7MEI-3" target="0kCGySsH5AtkTIRb7MEI-4">
          <mxGeometry relative="1" as="geometry" />
        </mxCell>
        <mxCell id="0kCGySsH5AtkTIRb7MEI-3" value="Категория" style="rounded=1;whiteSpace=wrap;html=1;arcSize=50;fillColor=#dae8fc;strokeColor=#6c8ebf;" vertex="1" parent="WIyWlLk6GJQsqaUBKTNV-1">
          <mxGeometry x="480" y="320" width="120" height="22" as="geometry" />
        </mxCell>
        <mxCell id="0kCGySsH5AtkTIRb7MEI-39" style="edgeStyle=orthogonalEdgeStyle;rounded=0;orthogonalLoop=1;jettySize=auto;html=1;fontColor=#CCCCCC;strokeColor=#007FFF;strokeWidth=1;" edge="1" parent="WIyWlLk6GJQsqaUBKTNV-1" source="0kCGySsH5AtkTIRb7MEI-4" target="0kCGySsH5AtkTIRb7MEI-27">
          <mxGeometry relative="1" as="geometry" />
        </mxCell>
        <mxCell id="0kCGySsH5AtkTIRb7MEI-40" style="edgeStyle=orthogonalEdgeStyle;rounded=0;orthogonalLoop=1;jettySize=auto;html=1;exitX=0.75;exitY=1;exitDx=0;exitDy=0;fontColor=#CCCCCC;strokeColor=#007FFF;strokeWidth=1;" edge="1" parent="WIyWlLk6GJQsqaUBKTNV-1" source="0kCGySsH5AtkTIRb7MEI-4" target="0kCGySsH5AtkTIRb7MEI-38">
          <mxGeometry relative="1" as="geometry" />
        </mxCell>
        <mxCell id="0kCGySsH5AtkTIRb7MEI-48" style="edgeStyle=orthogonalEdgeStyle;rounded=0;orthogonalLoop=1;jettySize=auto;html=1;fontColor=#CCCCCC;strokeColor=#000000;strokeWidth=1;entryX=1;entryY=0.5;entryDx=0;entryDy=0;" edge="1" parent="WIyWlLk6GJQsqaUBKTNV-1" source="0kCGySsH5AtkTIRb7MEI-4" target="0kCGySsH5AtkTIRb7MEI-17">
          <mxGeometry relative="1" as="geometry">
            <mxPoint x="410" y="390.0000000000001" as="targetPoint" />
          </mxGeometry>
        </mxCell>
        <mxCell id="0kCGySsH5AtkTIRb7MEI-49" style="edgeStyle=orthogonalEdgeStyle;rounded=0;orthogonalLoop=1;jettySize=auto;html=1;exitX=0.25;exitY=1;exitDx=0;exitDy=0;entryX=1;entryY=0.5;entryDx=0;entryDy=0;fontColor=#CCCCCC;strokeColor=#000000;strokeWidth=1;" edge="1" parent="WIyWlLk6GJQsqaUBKTNV-1" source="0kCGySsH5AtkTIRb7MEI-4" target="0kCGySsH5AtkTIRb7MEI-33">
          <mxGeometry relative="1" as="geometry" />
        </mxCell>
        <mxCell id="0kCGySsH5AtkTIRb7MEI-57" style="edgeStyle=orthogonalEdgeStyle;rounded=0;orthogonalLoop=1;jettySize=auto;html=1;entryX=1;entryY=0.75;entryDx=0;entryDy=0;fontColor=#CCCCCC;strokeWidth=1;" edge="1" parent="WIyWlLk6GJQsqaUBKTNV-1" target="0kCGySsH5AtkTIRb7MEI-30">
          <mxGeometry relative="1" as="geometry">
            <mxPoint x="490" y="400" as="sourcePoint" />
          </mxGeometry>
        </mxCell>
        <mxCell id="0kCGySsH5AtkTIRb7MEI-4" value="Тема" style="rounded=1;whiteSpace=wrap;html=1;arcSize=50;fillColor=#dae8fc;strokeColor=#6c8ebf;" vertex="1" parent="WIyWlLk6GJQsqaUBKTNV-1">
          <mxGeometry x="480" y="379" width="120" height="22" as="geometry" />
        </mxCell>
        <mxCell id="0kCGySsH5AtkTIRb7MEI-25" style="edgeStyle=orthogonalEdgeStyle;rounded=0;orthogonalLoop=1;jettySize=auto;html=1;entryX=0.5;entryY=0;entryDx=0;entryDy=0;strokeColor=#CCCCCC;fontColor=#CCCCCC;" edge="1" parent="WIyWlLk6GJQsqaUBKTNV-1" source="0kCGySsH5AtkTIRb7MEI-6" target="0kCGySsH5AtkTIRb7MEI-7">
          <mxGeometry relative="1" as="geometry" />
        </mxCell>
        <mxCell id="0kCGySsH5AtkTIRb7MEI-6" value="Мои списки" style="rounded=1;whiteSpace=wrap;html=1;arcSize=50;strokeColor=#CCCCCC;fontColor=#CCCCCC;" vertex="1" parent="WIyWlLk6GJQsqaUBKTNV-1">
          <mxGeometry x="-100" y="70" width="120" height="22" as="geometry" />
        </mxCell>
        <mxCell id="0kCGySsH5AtkTIRb7MEI-7" value="Список" style="rounded=1;whiteSpace=wrap;html=1;arcSize=50;strokeColor=#CCCCCC;fontColor=#CCCCCC;" vertex="1" parent="WIyWlLk6GJQsqaUBKTNV-1">
          <mxGeometry x="-100" y="120" width="120" height="22" as="geometry" />
        </mxCell>
        <mxCell id="0kCGySsH5AtkTIRb7MEI-12" value="да" style="edgeStyle=orthogonalEdgeStyle;rounded=0;orthogonalLoop=1;jettySize=auto;html=1;entryX=0.5;entryY=0;entryDx=0;entryDy=0;fontColor=#000000;" edge="1" parent="WIyWlLk6GJQsqaUBKTNV-1" source="0kCGySsH5AtkTIRb7MEI-9" target="0kCGySsH5AtkTIRb7MEI-10">
          <mxGeometry relative="1" as="geometry" />
        </mxCell>
        <mxCell id="0kCGySsH5AtkTIRb7MEI-14" value="нет" style="edgeStyle=orthogonalEdgeStyle;rounded=0;orthogonalLoop=1;jettySize=auto;html=1;fontColor=#000000;" edge="1" parent="WIyWlLk6GJQsqaUBKTNV-1" source="0kCGySsH5AtkTIRb7MEI-9" target="0kCGySsH5AtkTIRb7MEI-0">
          <mxGeometry relative="1" as="geometry" />
        </mxCell>
        <mxCell id="0kCGySsH5AtkTIRb7MEI-9" value="user != null" style="rhombus;whiteSpace=wrap;html=1;fontColor=#000000;" vertex="1" parent="WIyWlLk6GJQsqaUBKTNV-1">
          <mxGeometry x="500" y="120" width="80" height="80" as="geometry" />
        </mxCell>
        <mxCell id="0kCGySsH5AtkTIRb7MEI-15" value="" style="edgeStyle=orthogonalEdgeStyle;rounded=0;orthogonalLoop=1;jettySize=auto;html=1;fontColor=#000000;exitX=0.5;exitY=1;exitDx=0;exitDy=0;" edge="1" parent="WIyWlLk6GJQsqaUBKTNV-1" source="0kCGySsH5AtkTIRb7MEI-10" target="0kCGySsH5AtkTIRb7MEI-0">
          <mxGeometry relative="1" as="geometry" />
        </mxCell>
        <mxCell id="0kCGySsH5AtkTIRb7MEI-10" value="&lt;span style=&quot;text-align: left&quot;&gt;=&amp;gt;&amp;nbsp;&lt;/span&gt;&lt;span style=&quot;text-align: left&quot;&gt;mapTopicsProgress&lt;/span&gt;" style="rounded=0;whiteSpace=wrap;html=1;fontColor=#000000;" vertex="1" parent="WIyWlLk6GJQsqaUBKTNV-1">
          <mxGeometry x="610" y="190" width="170" height="30" as="geometry" />
        </mxCell>
        <mxCell id="0kCGySsH5AtkTIRb7MEI-17" value="&lt;span style=&quot;text-align: left&quot;&gt;=&amp;gt;&amp;nbsp;&lt;/span&gt;&lt;span style=&quot;text-align: left&quot;&gt;topicId&lt;/span&gt;&lt;span style=&quot;text-align: left&quot;&gt;&lt;br&gt;&lt;/span&gt;" style="rounded=0;whiteSpace=wrap;html=1;fontColor=#000000;" vertex="1" parent="WIyWlLk6GJQsqaUBKTNV-1">
          <mxGeometry x="240" y="375" width="170" height="30" as="geometry" />
        </mxCell>
        <mxCell id="0kCGySsH5AtkTIRb7MEI-61" style="edgeStyle=orthogonalEdgeStyle;rounded=0;orthogonalLoop=1;jettySize=auto;html=1;exitX=0;exitY=0.5;exitDx=0;exitDy=0;fontColor=#CCCCCC;strokeColor=#000000;strokeWidth=1;" edge="1" parent="WIyWlLk6GJQsqaUBKTNV-1" source="0kCGySsH5AtkTIRb7MEI-27" target="0kCGySsH5AtkTIRb7MEI-59">
          <mxGeometry relative="1" as="geometry" />
        </mxCell>
        <mxCell id="0kCGySsH5AtkTIRb7MEI-27" value="Слово" style="rounded=1;whiteSpace=wrap;html=1;arcSize=50;fillColor=#dae8fc;strokeColor=#6c8ebf;" vertex="1" parent="WIyWlLk6GJQsqaUBKTNV-1">
          <mxGeometry x="480" y="696" width="120" height="22" as="geometry" />
        </mxCell>
        <mxCell id="0kCGySsH5AtkTIRb7MEI-30" value="&lt;span style=&quot;text-align: left&quot;&gt;=&amp;gt;&amp;nbsp;&lt;/span&gt;&lt;span style=&quot;text-align: left&quot;&gt;numberOfCardsInTopic&lt;/span&gt;&lt;span style=&quot;text-align: left&quot;&gt;&lt;br&gt;&lt;/span&gt;" style="rounded=0;whiteSpace=wrap;html=1;fontColor=#000000;" vertex="1" parent="WIyWlLk6GJQsqaUBKTNV-1">
          <mxGeometry x="240" y="415" width="170" height="30" as="geometry" />
        </mxCell>
        <mxCell id="0kCGySsH5AtkTIRb7MEI-31" value="&lt;span style=&quot;text-align: left&quot;&gt;=&amp;gt;&amp;nbsp;&lt;/span&gt;&lt;span style=&quot;text-align: left&quot;&gt;allCards&lt;/span&gt;&lt;span style=&quot;text-align: left&quot;&gt;&lt;br&gt;&lt;/span&gt;" style="rounded=0;whiteSpace=wrap;html=1;fontColor=#000000;" vertex="1" parent="WIyWlLk6GJQsqaUBKTNV-1">
          <mxGeometry x="240" y="455" width="170" height="30" as="geometry" />
        </mxCell>
        <mxCell id="0kCGySsH5AtkTIRb7MEI-50" value="&lt;font color=&quot;#000000&quot;&gt;да&lt;/font&gt;" style="edgeStyle=orthogonalEdgeStyle;rounded=0;orthogonalLoop=1;jettySize=auto;html=1;entryX=1;entryY=0.5;entryDx=0;entryDy=0;fontColor=#CCCCCC;strokeColor=#000000;strokeWidth=1;" edge="1" parent="WIyWlLk6GJQsqaUBKTNV-1" source="0kCGySsH5AtkTIRb7MEI-33" target="0kCGySsH5AtkTIRb7MEI-34">
          <mxGeometry relative="1" as="geometry" />
        </mxCell>
        <mxCell id="0kCGySsH5AtkTIRb7MEI-52" value="&lt;font color=&quot;#000000&quot;&gt;нет&lt;/font&gt;" style="edgeStyle=orthogonalEdgeStyle;rounded=0;orthogonalLoop=1;jettySize=auto;html=1;entryX=1;entryY=0.75;entryDx=0;entryDy=0;fontColor=#CCCCCC;strokeColor=#000000;strokeWidth=1;" edge="1" parent="WIyWlLk6GJQsqaUBKTNV-1" source="0kCGySsH5AtkTIRb7MEI-33" target="0kCGySsH5AtkTIRb7MEI-37">
          <mxGeometry relative="1" as="geometry" />
        </mxCell>
        <mxCell id="0kCGySsH5AtkTIRb7MEI-33" value="user != null" style="rhombus;whiteSpace=wrap;html=1;fontColor=#000000;" vertex="1" parent="WIyWlLk6GJQsqaUBKTNV-1">
          <mxGeometry x="330" y="505" width="80" height="80" as="geometry" />
        </mxCell>
        <mxCell id="0kCGySsH5AtkTIRb7MEI-51" style="edgeStyle=orthogonalEdgeStyle;rounded=0;orthogonalLoop=1;jettySize=auto;html=1;exitX=0;exitY=0.5;exitDx=0;exitDy=0;fontColor=#CCCCCC;strokeColor=#000000;strokeWidth=1;" edge="1" parent="WIyWlLk6GJQsqaUBKTNV-1" source="0kCGySsH5AtkTIRb7MEI-34" target="0kCGySsH5AtkTIRb7MEI-36">
          <mxGeometry relative="1" as="geometry" />
        </mxCell>
        <mxCell id="0kCGySsH5AtkTIRb7MEI-34" value="&lt;span style=&quot;text-align: left&quot;&gt;=&amp;gt;&amp;nbsp;&lt;/span&gt;&lt;span style=&quot;text-align: left&quot;&gt;listLearnedCardsIds&lt;/span&gt;&lt;span style=&quot;text-align: left&quot;&gt;&lt;br&gt;&lt;/span&gt;" style="rounded=0;whiteSpace=wrap;html=1;fontColor=#000000;" vertex="1" parent="WIyWlLk6GJQsqaUBKTNV-1">
          <mxGeometry x="110" y="530" width="170" height="30" as="geometry" />
        </mxCell>
        <mxCell id="0kCGySsH5AtkTIRb7MEI-36" value="&lt;span style=&quot;text-align: left&quot;&gt;=&amp;gt;&amp;nbsp;&lt;/span&gt;&lt;span style=&quot;text-align: left&quot;&gt;cardsForTraining&lt;/span&gt;&lt;span style=&quot;text-align: left&quot;&gt;&lt;br&gt;&lt;/span&gt;" style="rounded=0;whiteSpace=wrap;html=1;fontColor=#000000;" vertex="1" parent="WIyWlLk6GJQsqaUBKTNV-1">
          <mxGeometry x="-80" y="530" width="170" height="30" as="geometry" />
        </mxCell>
        <mxCell id="0kCGySsH5AtkTIRb7MEI-37" value="&lt;span style=&quot;text-align: left&quot;&gt;=&amp;gt;&amp;nbsp;&lt;/span&gt;&lt;span style=&quot;text-align: left&quot;&gt;cardsForTraining&lt;/span&gt;&lt;span style=&quot;text-align: left&quot;&gt;&lt;br&gt;&lt;/span&gt;" style="rounded=0;whiteSpace=wrap;html=1;fontColor=#000000;" vertex="1" parent="WIyWlLk6GJQsqaUBKTNV-1">
          <mxGeometry x="180" y="620" width="170" height="30" as="geometry" />
        </mxCell>
        <mxCell id="0kCGySsH5AtkTIRb7MEI-38" value="Тренировка" style="rounded=1;whiteSpace=wrap;html=1;arcSize=50;fillColor=#dae8fc;strokeColor=#6c8ebf;" vertex="1" parent="WIyWlLk6GJQsqaUBKTNV-1">
          <mxGeometry x="710" y="696" width="120" height="22" as="geometry" />
        </mxCell>
        <mxCell id="0kCGySsH5AtkTIRb7MEI-59" value="&lt;span style=&quot;text-align: left&quot;&gt;=&amp;gt; card&lt;/span&gt;&lt;span style=&quot;text-align: left&quot;&gt;Id&lt;/span&gt;&lt;span style=&quot;text-align: left&quot;&gt;&lt;br&gt;&lt;/span&gt;" style="rounded=0;whiteSpace=wrap;html=1;fontColor=#000000;" vertex="1" parent="WIyWlLk6GJQsqaUBKTNV-1">
          <mxGeometry x="260" y="692" width="170" height="30" as="geometry" />
        </mxCell>
      </root>
    </mxGraphModel>
  </diagram>
</mxfile>
